#!OML:ASF E:\motion texture\Top Level 1\Subject 1\Session 1\male.ASF
:FULLY-SPECIFIED
:DEGREES
174
root 31.0828 16.6619 10.5802 31.1746 -52.4057 -21.3423
lowerback 7.18808 1.06944 4.14779
upperback -0.126081 1.8721 3.26239
thorax -4.1438 0.856952 0.857227
lowerneck -13.3403 -4.01743 -10.0132
upperneck 0.908355 -4.01876 4.2898
head 2.67511 -1.91846 2.65399
rclavicle 6.67916e-014 -3.85642e-014
rhumerus 7.31671 38.6031 -79.7995
rradius 73.808
rwrist 9.63507
rhand -28.3443 -26.7448
rfingers 7.12502
rthumb -1.71846 -56.7176
lclavicle 6.67916e-014 -3.85642e-014
lhumerus 8.97828 -17.6807 89.9111
lradius 65.5198
lwrist -0.489729
lhand -10.1652 33.24
lfingers 7.12502
lthumb 15.8246 62.6132
rfemur -0.222693 3.45733 16.6144
rtibia 31.1391
rfoot 10.9693 -21.1799
rtoes -17.0599
lfemur -53.2488 18.3282 -12.3918
ltibia 34.3403
lfoot -3.36774 13.345
ltoes 2.07594
175
root 30.9643 16.6795 10.7587 30.9722 -51.7002 -20.912
lowerback 7.29176 1.00672 3.89286
upperback -0.110843 1.77161 3.16405
thorax -4.19184 0.812188 0.906128
lowerneck -13.2445 -4.16401 -10.1233
upperneck 0.694602 -4.2198 4.57458
head 2.61861 -2.00592 2.74811
rclavicle -3.99557e-014 -6.36111e-015
rhumerus 6.77248 37.9089 -80.0429
rradius 74.0556
rwrist 9.61217
rhand -28.2698 -26.6828
rfingers 7.12502
rthumb -1.64652 -56.6562
lclavicle -3.99557e-014 -6.36111e-015
lhumerus 9.60373 -17.5324 89.5424
lradius 65.3143
lwrist -0.669001
lhand -10.3191 33.2601
lfingers 7.12502
lthumb 15.6764 62.645
rfemur -0.678326 3.5776 16.7799
rtibia 31.902
rfoot 11.8052 -21.0525
rtoes -15.8505
lfemur -53.4357 18.1916 -13.0339
ltibia 35.0924
lfoot -3.62751 12.9299
ltoes 2.42414
176
root 30.8472 16.6979 10.9376 30.755 -50.9857 -20.4657
lowerback 7.41323 0.937496 3.63271
upperback -0.0868977 1.66177 3.06727
thorax -4.24058 0.762935 0.960765
lowerneck -13.1408 -4.30992 -10.238
upperneck 0.470772 -4.4195 4.85951
head 2.55878 -2.0932 2.84344
rclavicle -1.72943e-014 -2.62396e-014
rhumerus 6.24663 37.2133 -80.2549
rradius 74.3031
rwrist 9.59925
rhand -28.155 -26.5932
rfingers 7.12502
rthumb -1.53562 -56.5674
lclavicle -1.72943e-014 -2.62396e-014
lhumerus 10.2545 -17.384 89.1868
lradius 65.0868
lwrist -0.832257
lhand -10.4738 33.2962
lfingers 7.12502
lthumb 15.5273 62.6928
rfemur -1.22635 3.65384 16.9448
rtibia 32.7524
rfoot 12.5068 -20.8954
rtoes -14.625
lfemur -53.576 18.0157 -13.6617
ltibia 35.8219
lfoot -3.9154 12.4905
ltoes 2.76509
177
root 30.7318 16.717 11.1168 30.5235 -50.2637 -20.0027
lowerback 7.55284 0.862077 3.36901
upperback -0.0548698 1.54304 2.97101
thorax -4.29068 0.709346 1.01918
lowerneck -13.0283 -4.45448 -10.3568
upperneck 0.237726 -4.61709 5.14428
head 2.49571 -2.17999 2.93989
rclavicle 6.71892e-014 -3.49861e-014
rhumerus 5.74376 36.5206 -80.4346
rradius 74.5529
rwrist 9.59268
rhand -27.9958 -26.4706
rfingers 7.12502
rthumb -1.38183 -56.4459
lclavicle 6.71892e-014 -3.49861e-014
lhumerus 10.929 -17.2391 88.8449
lradius 64.8387
lwrist -0.974987
lhand -10.6298 33.3478
lfingers 7.12502
lthumb 15.3771 62.756
rfemur -1.86921 3.68637 17.1065
rtibia 33.686
rfoot 13.0677 -20.7145
rtoes -13.4033
lfemur -53.6679 17.8026 -14.2767
ltibia 36.5207
lfoot -4.22995 12.0253
ltoes 3.10319
178
root 30.6179 16.7367 11.2962 30.2764 -49.5361 -19.5228
lowerback 7.71084 0.781005 3.10138
upperback -0.014459 1.41592 2.87506
thorax -4.34183 0.65169 1.08142
lowerneck -12.9067 -4.59753 -10.4791
upperneck -0.00326642 -4.81244 5.42826
head 2.42969 -2.26627 3.0372
rclavicle 1.27222e-014 -1.66979e-014
rhumerus 5.26971 35.8319 -80.5798
rradius 74.8063
rwrist 9.5958
rhand -27.7677 -26.2972
rfingers 7.12502
rthumb -1.16153 -56.2738
lclavicle 1.27222e-014 -1.66979e-014
lhumerus 11.6269 -17.0989 88.5183
lradius 64.5719
lwrist -1.08921
lhand -10.7885 33.4187
lfingers 7.12502
lthumb 15.2242 62.8385
rfemur -2.60532 3.67591 17.2634
rtibia 34.6953
rfoot 13.4868 -20.5144
rtoes -12.1979
lfemur -53.7077 17.5567 -14.8804
ltibia 37.1819
lfoot -4.57009 11.5324
ltoes 3.43358
179
root 30.5056 16.7568 11.4756 30.0149 -48.8035 -19.0278
lowerback 7.88794 0.694468 2.83087
upperback 0.0338489 1.28071 2.78015
thorax -4.39486 0.590066 1.14772
lowerneck -12.7757 -4.73839 -10.6044
upperneck -0.251614 -5.00471 5.71001
head 2.36074 -2.3517 3.13492
rclavicle 1.94809e-014 -3.18055e-015
rhumerus 4.83113 35.1533 -80.6861
rradius 75.0658
rwrist 9.60564
rhand -27.4811 -26.0844
rfingers 7.12502
rthumb -0.884768 -56.0623
lclavicle 1.94809e-014 -3.18055e-015
lhumerus 12.3452 -16.9646 88.2094
lradius 64.2882
lwrist -1.17472
lhand -10.9549 33.508
lfingers 7.12502
lthumb 15.0639 62.9399
rfemur -3.43569 3.62328 17.4154
rtibia 35.7755
rfoot 13.7633 -20.2985
rtoes -10.9944
lfemur -53.6939 17.2817 -15.4726
ltibia 37.8007
lfoot -4.93416 11.0111
ltoes 3.75824
180
root 30.395 16.7774 11.655 29.739 -48.0676 -18.5178
lowerback 8.08394 0.603032 2.55836
upperback 0.0900551 1.13806 2.68589
thorax -4.44948 0.524775 1.21727
lowerneck -12.6347 -4.87681 -10.7332
upperneck -0.506951 -5.19357 5.98954
head 2.28884 -2.43614 3.23321
rclavicle 5.46658e-014 4.37326e-014
rhumerus 4.43328 34.4866 -80.752
rradius 75.3304
rwrist 9.62562
rhand -27.1397 -25.8321
rfingers 7.12502
rthumb -0.555012 -55.8111
lclavicle 5.46658e-014 4.37326e-014
lhumerus 13.0823 -16.8373 87.9191
lradius 63.9903
lwrist -1.23167
lhand -11.1217 33.6122
lfingers 7.12502
lthumb 14.9032 63.0561
rfemur -4.35944 3.53176 17.5612
rtibia 36.9185
rfoot 13.8974 -20.0714
rtoes -9.82773
lfemur -53.6264 16.983 -16.0564
ltibia 38.3737
lfoot -5.32172 10.4609
ltoes 4.08553
181
root 30.2861 16.7982 11.8341 29.4486 -47.3286 -17.993
lowerback 8.29917 0.507247 2.28401
upperback 0.15394 0.988589 2.59268
thorax -4.50602 0.456125 1.29044
lowerneck -12.4844 -5.0128 -10.861
upperneck -0.766994 -5.37947 6.26199
head 2.21456 -2.51998 3.32981
rclavicle 1.03368e-014 -9.54166e-015
rhumerus 4.07773 33.8265 -80.7829
rradius 75.5989
rwrist 9.65974
rhand -26.7471 -25.5423
rfingers 7.12502
rthumb -0.175875 -55.5219
lclavicle 1.03368e-014 -9.54166e-015
lhumerus 13.8367 -16.7195 87.6492
lradius 63.6795
lwrist -1.25842
lhand -11.2915 33.7309
lfingers 7.12502
lthumb 14.7397 63.1869
rfemur -5.37552 3.4018 17.7003
rtibia 38.1168
rfoot 13.8938 -19.8342
rtoes -8.70372
lfemur -53.5042 16.6629 -16.6327
ltibia 38.8985
lfoot -5.73044 9.88359
ltoes 4.40406
182
root 30.1788 16.8192 12.0131 29.1444 -46.5859 -17.4556
lowerback 8.53395 0.406529 2.01119
upperback 0.225491 0.831724 2.50081
thorax -4.5645 0.383748 1.36584
lowerneck -12.3237 -5.14528 -10.9927
upperneck -1.03223 -5.5606 6.53207
head 2.13766 -2.60218 3.42712
rclavicle -3.53837e-014 -1.51076e-014
rhumerus 3.77417 33.1918 -80.7646
rradius 75.8794
rwrist 9.68996
rhand -26.3195 -25.2282
rfingers 7.12502
rthumb 0.237153 -55.2078
lclavicle -3.53837e-014 -1.51076e-014
lhumerus 14.6069 -16.6113 87.3998
lradius 63.3579
lwrist -1.25399
lhand -11.4527 33.86
lfingers 7.12502
lthumb 14.5844 63.3272
rfemur -6.4809 3.23801 17.8344
rtibia 39.3603
rfoot 13.7546 -19.5925
rtoes -7.60939
lfemur -53.3287 16.3259 -17.2025
ltibia 39.3753
lfoot -6.16095 9.28034
ltoes 4.73512
